<svg id="arrow-left-right" xmlns="http://www.w3.org/2000/svg" width="27.004" height="29.252" viewBox="0 0 27.004 29.252">
  <path id="Path_29" data-name="Path 29" d="M22.829,17.2a1.125,1.125,0,0,1,1.593,0l6.75,6.75a1.125,1.125,0,0,1,0,1.593l-6.75,6.75A1.126,1.126,0,1,1,22.829,30.7l5.955-5.953L22.828,18.8a1.125,1.125,0,0,1,0-1.593Z" transform="translate(-4.498 -3.373)" fill="#cfcfcf" fill-rule="evenodd"/>
  <path id="Path_30" data-name="Path 30" d="M4.5,24.75a1.125,1.125,0,0,1,1.125-1.125H29.25a1.125,1.125,0,0,1,0,2.25H5.625A1.125,1.125,0,0,1,4.5,24.75ZM13.171,3.7a1.125,1.125,0,0,1,0,1.593L7.216,11.25,13.172,17.2A1.126,1.126,0,1,1,11.579,18.8l-6.75-6.75a1.125,1.125,0,0,1,0-1.593l6.75-6.75a1.125,1.125,0,0,1,1.593,0Z" transform="translate(-4.498 -3.373)" fill="#cfcfcf" fill-rule="evenodd"/>
  <path id="Path_31" data-name="Path 31" d="M5.625,11.25A1.125,1.125,0,0,1,6.75,10.125H30.375a1.125,1.125,0,0,1,0,2.25H6.75A1.125,1.125,0,0,1,5.625,11.25Z" transform="translate(-4.498 -3.373)" fill="#cfcfcf" fill-rule="evenodd"/>
</svg>
